<svg width="24" height="24" viewBox="0 0 24 24" fill="none" xmlns="http://www.w3.org/2000/svg">
<path d="M2.14709 2.26456C1.74092 2.18333 1.3458 2.44674 1.26456 2.85291C1.18333 3.25908 1.44674 3.6542 1.85291 3.73544L2 3L2.14709 2.26456ZM3.04936 3.20987L2.90227 3.94531V3.94531L3.04936 3.20987ZM20.1628 13.8489L19.4352 13.667V13.667L20.1628 13.8489ZM21.2855 9.35783L20.5579 9.17593V9.17593L21.2855 9.35783ZM4.6472 4.97203L3.90092 5.04665V5.04665L4.6472 4.97203ZM4.8 6.5L4.05372 6.57463L4.05446 6.582L4.05534 6.58936L4.8 6.5ZM5.78859 14.7383L6.53325 14.6489V14.6489L5.78859 14.7383ZM8.5 5.75C8.08579 5.75 7.75 6.08579 7.75 6.5C7.75 6.91421 8.08579 7.25 8.5 7.25V6.5V5.75ZM13 14.25C13.4142 14.25 13.75 13.9142 13.75 13.5C13.75 13.0858 13.4142 12.75 13 12.75V13.5V14.25ZM2 3L1.85291 3.73544L2.90227 3.94531L3.04936 3.20987L3.19645 2.47444L2.14709 2.26456L2 3ZM7.77435 16.5V17.25H16.7673V16.5V15.75H7.77435V16.5ZM20.1628 13.8489L20.8904 14.0308L22.0131 9.53973L21.2855 9.35783L20.5579 9.17593L19.4352 13.667L20.1628 13.8489ZM4.6472 4.97203L3.90092 5.04665L4.05372 6.57463L4.8 6.5L5.54628 6.42537L5.39348 4.8974L4.6472 4.97203ZM4.8 6.5L4.05534 6.58936L5.04394 14.8277L5.78859 14.7383L6.53325 14.6489L5.54466 6.41064L4.8 6.5ZM21.2855 9.35783L22.0131 9.53973C22.4944 7.61473 21.0385 5.75 19.0542 5.75V6.5V7.25C20.0626 7.25 20.8025 8.19765 20.5579 9.17593L21.2855 9.35783ZM16.7673 16.5V17.25C18.7175 17.25 20.4174 15.9227 20.8904 14.0308L20.1628 13.8489L19.4352 13.667C19.1291 14.8912 18.0292 15.75 16.7673 15.75V16.5ZM7.77435 16.5V15.75C7.1416 15.75 6.60864 15.2772 6.53325 14.6489L5.78859 14.7383L5.04394 14.8277C5.20979 16.2098 6.3823 17.25 7.77435 17.25V16.5ZM3.04936 3.20987L2.90227 3.94531C3.44102 4.05306 3.84626 4.49996 3.90092 5.04665L4.6472 4.97203L5.39348 4.8974C5.27321 3.69468 4.3817 2.71149 3.19645 2.47444L3.04936 3.20987ZM9 13.5V14.25H13V13.5V12.75H9V13.5ZM8.5 20.75H7.75V21.5V22.25C8.57843 22.25 9.25 21.5784 9.25 20.75H8.5ZM7.75 21.5V20.75H7H6.25C6.25 21.5784 6.92157 22.25 7.75 22.25V21.5ZM7 20.75H7.75V20V19.25C6.92157 19.25 6.25 19.9216 6.25 20.75H7ZM7.75 20V20.75H8.5H9.25C9.25 19.9216 8.57843 19.25 7.75 19.25V20ZM17.5 20.75H16.75V21.5V22.25C17.5784 22.25 18.25 21.5784 18.25 20.75H17.5ZM16.75 21.5V20.75H16H15.25C15.25 21.5784 15.9216 22.25 16.75 22.25V21.5ZM16 20.75H16.75V20V19.25C15.9216 19.25 15.25 19.9216 15.25 20.75H16ZM16.75 20V20.75H17.5H18.25C18.25 19.9216 17.5784 19.25 16.75 19.25V20ZM19.0542 6.5V5.75H8.5V6.5V7.25H19.0542V6.5Z" fill="#174BA0"/>
</svg>
