<svg width="24" height="24" viewBox="0 0 24 24" fill="none" xmlns="http://www.w3.org/2000/svg">
<path d="M8.8085 8.40426C8.8085 10.2844 10.3326 11.8085 12.2128 11.8085C14.0929 11.8085 15.617 10.2844 15.617 8.40426C15.617 6.52414 14.0929 5 12.2128 5M17.3192 11.9027C18.7964 11.9027 19.9939 10.7052 19.9939 9.22796C19.9939 7.75073 18.7964 6.55319 17.3192 6.55319M20.2486 18.005L20.5107 18.0425C21.2967 18.1548 22 17.5448 22 16.7508V15.8711C22 15.2958 21.6383 14.7826 21.0965 14.5891C20.5561 14.3961 20.0045 14.2458 19.4468 14.1382M6.68085 11.9027C5.20362 11.9027 4.00608 10.7052 4.00608 9.22796C4.00608 7.75073 5.20362 6.55319 6.68085 6.55319M3.75139 18.005L3.48932 18.0425C2.70327 18.1548 2 17.5448 2 16.7508V15.8711C2 15.2958 2.36167 14.7826 2.90347 14.5891C3.44392 14.3961 3.99546 14.2458 4.55319 14.1382M15.9412 19.5753L16.2747 19.623C17.2751 19.7659 18.1702 18.9896 18.1702 17.979V16.8594C18.1702 16.1272 17.7099 15.474 17.0203 15.2278C13.9115 14.1174 10.5141 14.1174 7.40518 15.2278C6.71562 15.474 6.25532 16.1272 6.25532 16.8594V17.979C6.25532 18.9896 7.15039 19.7659 8.15082 19.623L8.48437 19.5753C10.9574 19.222 13.4681 19.222 15.9412 19.5753Z" stroke="#174BA0" stroke-width="1.5" stroke-linecap="round"/>
</svg>
