<svg width="24" height="24" viewBox="0 0 24 24" fill="none" xmlns="http://www.w3.org/2000/svg">
<path d="M8.48211 2.99994C9.4418 2.3678 10.591 1.99994 11.8261 1.99994C15.1878 1.99994 17.9131 4.72516 17.9131 8.0869V10.1794C17.9131 11.2798 18.6221 12.2421 19.1857 13.1872C19.482 13.684 19.6522 14.2646 19.6522 14.8851C19.6522 16.488 18.507 17.8632 16.9193 18.0834C15.3426 18.302 13.3724 18.5219 11.8261 18.5219C10.2797 18.5219 8.3096 18.302 6.73291 18.0834C5.1452 17.8632 4 16.488 4 14.8851C4 14.2646 4.1702 13.684 4.46647 13.1872C5.03006 12.2421 5.73914 11.2798 5.73914 10.1794V8.08689C5.73914 7.25572 5.90573 6.46345 6.20735 5.74167M14 20.8339C13.5326 21.5368 12.7335 22.0001 11.8261 22.0001C10.9187 22.0001 10.1195 21.5368 9.65219 20.8339" stroke="#174BA0" stroke-width="1.5" stroke-linecap="round"/>
</svg>
