<svg width="24" height="24" viewBox="0 0 24 24" fill="none" xmlns="http://www.w3.org/2000/svg">
<path d="M13.9617 4.5L13.4891 3.71236C13.0233 2.93617 11.8987 2.93543 11.4319 3.71101L9.103 7.58087C8.93545 7.85928 8.66215 8.05784 8.34559 8.13116L3.94257 9.15091C3.06139 9.35499 2.71419 10.4236 3.30712 11.1066L6.26985 14.5196C6.48286 14.765 6.58725 15.0863 6.55916 15.41L6.45133 16.6525M15.6298 7.2644L15.8202 7.58087C15.9878 7.85928 16.2611 8.05784 16.5777 8.13116L20.9807 9.15091C21.8619 9.35499 22.209 10.4236 21.6161 11.1066L18.6534 14.5196C18.4404 14.765 18.336 15.0863 18.3641 15.41L18.7549 19.9127C18.8331 20.8138 17.9241 21.4742 17.0912 21.1214L12.9297 19.3583C12.6305 19.2316 12.2927 19.2316 11.9935 19.3583L7.61239 21.2144C6.87917 21.525 6.07892 20.9436 6.14777 20.1503L6.18571 19.713" stroke="#174BA0" stroke-width="1.5" stroke-linecap="round"/>
</svg>
