<svg width="24" height="24" viewBox="0 0 24 24" fill="none" xmlns="http://www.w3.org/2000/svg">
<path d="M4 13H3.25C3.25 13.4142 3.58579 13.75 4 13.75V13ZM8 13.75C8.41421 13.75 8.75 13.4142 8.75 13C8.75 12.5858 8.41421 12.25 8 12.25V13V13.75ZM18.845 5.58817L18.2384 5.14704V5.14704L18.845 5.58817ZM16.8555 8.32366L16.249 7.88253V7.88253L16.8555 8.32366ZM16.8555 10.6763L16.249 11.1175V11.1175L16.8555 10.6763ZM18.845 13.4118L19.4515 12.9707V12.9707L18.845 13.4118ZM16 3.25C15.5858 3.25 15.25 3.58579 15.25 4C15.25 4.41421 15.5858 4.75 16 4.75V4V3.25ZM4.75 4C4.75 3.58579 4.41421 3.25 4 3.25C3.58579 3.25 3.25 3.58579 3.25 4H4H4.75ZM3.25 22C3.25 22.4142 3.58579 22.75 4 22.75C4.41421 22.75 4.75 22.4142 4.75 22H4H3.25ZM5.5 2V2.75H10.5V2V1.25H5.5V2ZM4 13H4.75V3.5H4H3.25V13H4ZM8 13V12.25H4V13V13.75H8V13ZM12 3.5H11.25V7.5H12H12.75V3.5H12ZM10.5 2V2.75C10.9142 2.75 11.25 3.08579 11.25 3.5H12H12.75C12.75 2.25736 11.7426 1.25 10.5 1.25V2ZM5.5 2V1.25C4.25736 1.25 3.25 2.25736 3.25 3.5H4H4.75C4.75 3.08579 5.08579 2.75 5.5 2.75V2ZM18.0362 15V14.25H13V15V15.75H18.0362V15ZM12 14H12.75V4H12H11.25V14H12ZM18.845 5.58817L18.2384 5.14704L16.249 7.88253L16.8555 8.32366L17.4621 8.76479L19.4515 6.0293L18.845 5.58817ZM16.8555 10.6763L16.249 11.1175L18.2384 13.853L18.845 13.4118L19.4515 12.9707L17.4621 10.2352L16.8555 10.6763ZM16 4V4.75H18.0362V4V3.25H16V4ZM16.8555 8.32366L16.249 7.88253C15.5477 8.84682 15.5477 10.1532 16.249 11.1175L16.8555 10.6763L17.4621 10.2352C17.1433 9.7969 17.1433 9.2031 17.4621 8.76479L16.8555 8.32366ZM13 15V14.25C12.8619 14.25 12.75 14.1381 12.75 14H12H11.25C11.25 14.9665 12.0335 15.75 13 15.75V15ZM18.0362 15V15.75C19.4665 15.75 20.2928 14.1274 19.4515 12.9707L18.845 13.4118L18.2384 13.853C18.3586 14.0182 18.2406 14.25 18.0362 14.25V15ZM18.845 5.58817L19.4515 6.0293C20.2928 4.8726 19.4665 3.25 18.0362 3.25V4V4.75C18.2406 4.75 18.3586 4.9818 18.2384 5.14704L18.845 5.58817ZM4 4H3.25L3.25 22H4H4.75L4.75 4H4Z" fill="#174BA0"/>
</svg>
