<svg width="24" height="24" viewBox="0 0 24 24" fill="none" xmlns="http://www.w3.org/2000/svg">
<path d="M19.0765 8.74611C18.4765 7.39828 17.5153 6.24266 16.2994 5.40699C15.0835 4.57133 13.6602 4.08818 12.1869 4.01097C10.7135 3.93375 9.2475 4.26547 7.95091 4.96946C7.27729 5.33521 6.66303 5.79404 6.12482 6.32968M3 5.51537L3.72941 8.6749C3.85365 9.21303 4.3906 9.54856 4.92873 9.42433L8.08827 8.69492M4.45986 15.2538C5.05995 16.6016 6.02107 17.7572 7.23697 18.5929C8.45287 19.4286 9.87617 19.9117 11.3495 19.9889C12.8229 20.0661 14.2889 19.7344 15.5855 19.0304C16.2 18.6968 16.7652 18.2856 17.2682 17.8094M20.5364 18.4845L19.807 15.325C19.6828 14.7869 19.1458 14.4513 18.6077 14.5756L15.4481 15.305" stroke="#174BA0" stroke-width="1.5" stroke-linecap="round"/>
</svg>
