<svg width="24" height="24" viewBox="0 0 24 24" fill="none" xmlns="http://www.w3.org/2000/svg">
<path d="M7.5 4H6C3.79086 4 2 5.79086 2 8V9.22305C2 9.41329 2.1354 9.57393 2.31525 9.63594C3.29568 9.97398 4 10.9047 4 12C4 13.0953 3.29568 14.026 2.31525 14.3641C2.1354 14.4261 2 14.5867 2 14.777V16C2 18.2091 3.79086 20 6 20H18C20.2091 20 22 18.2091 22 16V14.777C22 14.5867 21.8646 14.4261 21.6847 14.3641C20.7043 14.026 20 13.0953 20 12C20 10.9047 20.7043 9.97398 21.6847 9.63594C21.8646 9.57393 22 9.41329 22 9.22305V8C22 5.79086 20.2091 4 18 4H11M15 4V7M15 10.5V13.5M15 17V20" stroke="#174BA0" stroke-width="1.5" stroke-linecap="round"/>
</svg>
