<svg width="24" height="24" viewBox="0 0 24 24" fill="none" xmlns="http://www.w3.org/2000/svg">
<path d="M18.236 5.32987C18.5514 5.35581 18.8673 5.33129 19.1718 5.2595C19.4999 5.18215 19.8613 5.24076 20.0806 5.49671C20.8818 6.4317 21.5133 7.51632 21.9275 8.70289C22.0528 9.0617 21.8707 9.44185 21.5774 9.68352C20.9096 10.2338 20.4838 11.0672 20.4838 12C20.4838 12.9328 20.9096 13.7662 21.5774 14.3165C21.8707 14.5581 22.0528 14.9383 21.9275 15.2971C21.5134 16.4835 20.8819 17.5681 20.0809 18.503C19.8615 18.759 19.5001 18.8176 19.172 18.7402C18.4542 18.5709 17.673 18.6643 16.9839 19.0621C16.234 19.4951 15.7418 20.2029 15.5609 20.9848C15.4848 21.3136 15.2719 21.6122 14.9447 21.695C14.1574 21.8942 13.333 22 12.4838 22C11.6347 22 10.8103 21.8942 10.0231 21.695C9.69591 21.6122 9.48292 21.3137 9.40687 20.9848C9.35358 20.7544 9.27324 20.5304 9.16723 20.318M15.84 3.75789C15.7144 3.52319 15.6207 3.27319 15.561 3.01511C15.4849 2.68633 15.272 2.38787 14.9448 2.30508C14.1575 2.10585 13.333 2 12.4838 2C11.6347 2 10.8103 2.10584 10.023 2.30504C9.69587 2.38783 9.48289 2.6863 9.40681 3.01508C9.22591 3.79691 8.73368 4.5046 7.98388 4.9375C7.29486 5.33531 6.51363 5.42873 5.7959 5.25948C5.46782 5.18212 5.10642 5.24072 4.8871 5.49667C4.08593 6.43167 3.45438 7.5163 3.04014 8.70287C2.91487 9.06169 3.09696 9.44184 3.39027 9.68351C4.05809 10.2337 4.48386 11.0671 4.48386 12C4.48386 12.9329 4.05809 13.7663 3.39027 14.3165C3.09695 14.5582 2.91487 14.9383 3.04014 15.2971C3.45433 16.4836 4.08578 17.5681 4.88683 18.503C5.10616 18.759 5.46761 18.8176 5.79571 18.7402C6.13514 18.6601 6.48877 18.6388 6.84013 18.6807M9.48378 12C9.48378 13.6569 10.8269 15 12.4838 15C14.1406 15 15.4838 13.6569 15.4838 12C15.4838 10.3431 14.1406 9 12.4838 9C10.8269 9 9.48378 10.3431 9.48378 12Z" stroke="#174BA0" stroke-width="1.5" stroke-linecap="round"/>
</svg>
