<svg width="24" height="24" viewBox="0 0 24 24" fill="none" xmlns="http://www.w3.org/2000/svg">
<path d="M9.53125 4.34375L10.125 3.875C11.5175 2.77565 13.4825 2.77565 14.875 3.875L20.4786 8.29888C21.4394 9.05744 22 10.2142 22 11.4384V18C22 20.2091 20.2091 22 18 22H16.5C15.9477 22 15.5 21.5523 15.5 21V19M5.96875 7.15625L5.375 7.625L4.52142 8.29888C3.56058 9.05744 3 10.2142 3 11.4384L3 18C3 20.2091 4.79086 22 7 22H8.5C9.05228 22 9.5 21.5523 9.5 21V18C9.5 16.8954 10.3954 16 11.5 16H12.5" stroke="#174BA0" stroke-width="1.5" stroke-linecap="round"/>
</svg>
