<svg width="24" height="24" viewBox="0 0 24 24" fill="none" xmlns="http://www.w3.org/2000/svg">
<path d="M19.8945 10.4693L19.1511 10.5684V10.5684L19.8945 10.4693ZM20.8281 17.4713L20.0847 17.5705V17.5705L20.8281 17.4713ZM12.4319 7.75C12.8461 7.75 13.1819 7.41421 13.1819 7C13.1819 6.58579 12.8461 6.25 12.4319 6.25V7V7.75ZM4.96908 10.4713L4.22566 10.3722V10.3722L4.96908 10.4713ZM3.93851 12.5259C3.88377 12.9365 4.17223 13.3137 4.58281 13.3684C4.99339 13.4232 5.37061 13.1347 5.42535 12.7241L4.68193 12.625L3.93851 12.5259ZM4.03575 17.4713L4.77917 17.5705L4.03575 17.4713ZM4.92535 16.4741C4.9801 16.0635 4.69163 15.6863 4.28105 15.6316C3.87047 15.5768 3.49325 15.8653 3.43851 16.2759L4.18193 16.375L4.92535 16.4741ZM15.6819 9C15.6819 9.41421 16.0177 9.75 16.4319 9.75C16.8461 9.75 17.1819 9.41421 17.1819 9H16.4319H15.6819ZM7.68193 9C7.68193 9.41421 8.01772 9.75 8.43193 9.75C8.84614 9.75 9.18193 9.41421 9.18193 9H8.43193H7.68193ZM19.8945 10.4693L19.1511 10.5684L20.0847 17.5705L20.8281 17.4713L21.5715 17.3722L20.6379 10.3702L19.8945 10.4693ZM16.8632 22V21.25H8.00066V22V22.75H16.8632V22ZM8.934 7V7.75H12.4319V7V6.25H8.934V7ZM4.03575 17.4713L4.77917 17.5705L4.92535 16.4741L4.18193 16.375L3.43851 16.2759L3.29233 17.3722L4.03575 17.4713ZM8.00066 22V21.25C6.0351 21.25 4.5194 19.5188 4.77917 17.5705L4.03575 17.4713L3.29233 17.3722C2.91266 20.2198 5.12791 22.75 8.00066 22.75V22ZM20.8281 17.4713L20.0847 17.5705C20.3445 19.5188 18.8288 21.25 16.8632 21.25V22V22.75C19.7359 22.75 21.9512 20.2198 21.5715 17.3722L20.8281 17.4713ZM19.8945 10.4693L20.6379 10.3702C20.3234 8.01152 18.3115 6.25 15.9319 6.25V7V7.75C17.5597 7.75 18.936 8.95497 19.1511 10.5684L19.8945 10.4693ZM8.934 7V6.25C6.55328 6.25 4.54031 8.01239 4.22566 10.3722L4.96908 10.4713L5.71251 10.5705C5.92779 8.95585 7.30509 7.75 8.934 7.75V7ZM16.4319 6H15.6819V9H16.4319H17.1819V6H16.4319ZM8.43193 9H9.18193V6H8.43193H7.68193V9H8.43193ZM12.4319 2V2.75C14.2269 2.75 15.6819 4.20507 15.6819 6H16.4319H17.1819C17.1819 3.37665 15.0553 1.25 12.4319 1.25V2ZM12.4319 2V1.25C9.80858 1.25 7.68193 3.37665 7.68193 6H8.43193H9.18193C9.18193 4.20507 10.637 2.75 12.4319 2.75V2ZM4.68193 12.625L5.42535 12.7241L5.71251 10.5705L4.96908 10.4713L4.22566 10.3722L3.93851 12.5259L4.68193 12.625Z" fill="#174BA0"/>
</svg>
