<svg width="24" height="24" viewBox="0 0 24 24" fill="none" xmlns="http://www.w3.org/2000/svg">
<path d="M9 12C9 13.6569 10.3431 15 12 15C13.6569 15 15 13.6569 15 12C15 10.3431 13.6569 9 12 9M12 6C8.20336 6 4.9 8.10803 3.20058 11.2154C2.93314 11.7045 2.93314 12.2954 3.20057 12.7844C4.89997 15.8919 8.20336 18 12 18C15.7966 18 19.1 15.892 20.7994 12.7846C21.0669 12.2956 21.0669 11.7046 20.7994 11.2156C19.1 8.10809 15.7966 6 12 6Z" stroke="#174BA0" stroke-width="1.5" stroke-linecap="round"/>
</svg>
