<svg width="24" height="24" viewBox="0 0 24 24" fill="none" xmlns="http://www.w3.org/2000/svg">
<path d="M3.06069 17.9728C3.2911 18.317 3.75692 18.4092 4.10114 18.1788C4.44535 17.9484 4.53761 17.4826 4.3072 17.1384L3.68394 17.5556L3.06069 17.9728ZM6.99368 19.7796C6.64558 19.5551 6.1814 19.6552 5.95689 20.0033C5.73238 20.3514 5.83257 20.8156 6.18067 21.0401L6.58717 20.4098L6.99368 19.7796ZM12.5 11H13.25C13.25 10.5858 12.9142 10.25 12.5 10.25V11ZM11.75 17C11.75 17.4142 12.0858 17.75 12.5 17.75C12.9142 17.75 13.25 17.4142 13.25 17H12.5H11.75ZM10.5 10.25C10.0858 10.25 9.75 10.5858 9.75 11C9.75 11.4142 10.0858 11.75 10.5 11.75V11V10.25ZM13.25 7C13.25 6.58579 12.9142 6.25 12.5 6.25C12.0858 6.25 11.75 6.58579 11.75 7H12.5H13.25ZM11.75 8C11.75 8.41421 12.0858 8.75 12.5 8.75C12.9142 8.75 13.25 8.41421 13.25 8H12.5H11.75ZM22 12H21.25C21.25 17.1086 17.1086 21.25 12 21.25V22V22.75C17.9371 22.75 22.75 17.9371 22.75 12H22ZM2 12H2.75C2.75 6.89137 6.89137 2.75 12 2.75V2V1.25C6.06294 1.25 1.25 6.06294 1.25 12H2ZM12 2V2.75C17.1086 2.75 21.25 6.89137 21.25 12H22H22.75C22.75 6.06294 17.9371 1.25 12 1.25V2ZM3.68394 17.5556L4.3072 17.1384C3.32361 15.669 2.75 13.9026 2.75 12H2H1.25C1.25 14.2088 1.91699 16.2642 3.06069 17.9728L3.68394 17.5556ZM12 22V21.25C10.1539 21.25 8.43629 20.71 6.99368 19.7796L6.58717 20.4098L6.18067 21.0401C7.85834 22.1222 9.85699 22.75 12 22.75V22ZM12.5 11H11.75V17H12.5H13.25V11H12.5ZM12.5 11V10.25H10.5V11V11.75H12.5V11ZM12.5 7H11.75V8H12.5H13.25V7H12.5Z" fill="#174BA0"/>
</svg>
