<svg width="24" height="24" viewBox="0 0 24 24" fill="none" xmlns="http://www.w3.org/2000/svg">
<path d="M6.29424 13V11.5823C6.29424 10.5552 5.96112 9.55584 5.34487 8.73418C4.49997 7.60763 5.30378 6 6.71196 6H17.8765C19.2847 6 20.0885 7.60763 19.2436 8.73418C18.6274 9.55584 18.2942 10.5552 18.2942 11.5823V18C18.2942 20.2091 16.5034 22 14.2942 22H10.2942C8.0851 22 6.29424 20.2091 6.29424 18V17M14.2942 11V17M10.2942 11L10.2942 17M14.931 3.31557C14.6165 3.11415 14.2446 3 13.8527 3H10.7358C10.3439 3 9.97201 3.11415 9.65746 3.31557" stroke="#174BA0" stroke-width="1.5" stroke-linecap="round"/>
</svg>
