<svg width="24" height="24" viewBox="0 0 24 24" fill="none" xmlns="http://www.w3.org/2000/svg">
<path d="M3.20058 11.7511L3.8586 12.111H3.8586L3.20058 11.7511ZM20.7994 13.3202L21.4574 13.6801V13.6801L20.7994 13.3202ZM20.7994 11.7512L21.4575 11.3914V11.3914L20.7994 11.7512ZM3.20057 13.3201L2.54254 13.6799H2.54254L3.20057 13.3201ZM19.5236 8.84473C19.227 8.55556 18.7522 8.56156 18.463 8.85813C18.1738 9.1547 18.1798 9.62954 18.4764 9.91871L19 9.38172L19.5236 8.84473ZM9.68628 17.4953C9.28505 17.3924 8.87638 17.6343 8.7735 18.0355C8.67062 18.4367 8.91249 18.8454 9.31372 18.9483L9.5 18.2218L9.68628 17.4953ZM14.604 6.87681L14.7981 6.15236V6.15236L14.604 6.87681ZM5.43906 16.0931L4.94816 16.6601H4.94816L5.43906 16.0931ZM7.07264 17.2446L6.70374 17.8976L7.50475 16.6315L7.07264 17.2446ZM19.9948 5.53033C20.2877 5.23744 20.2877 4.76256 19.9948 4.46967C19.7019 4.17678 19.227 4.17678 18.9341 4.46967L19.4645 5L19.9948 5.53033ZM8.25 12.5357C8.25 12.9499 8.58579 13.2857 9 13.2857C9.41421 13.2857 9.75 12.9499 9.75 12.5357H9H8.25ZM12 10.2857C12.4142 10.2857 12.75 9.94988 12.75 9.53567C12.75 9.12145 12.4142 8.78567 12 8.78567V9.53567V10.2857ZM3.20058 11.7511L3.8586 12.111C5.43153 9.23485 8.4879 7.28567 12 7.28567V6.53567V5.78567C7.91882 5.78567 4.36847 8.05253 2.54256 11.3912L3.20058 11.7511ZM20.7994 13.3202L20.1414 12.9604C18.5685 15.8365 15.5121 17.7857 12 17.7857V18.5357V19.2857C16.0812 19.2857 19.6315 17.0188 21.4574 13.6801L20.7994 13.3202ZM20.7994 11.7512L20.1414 12.1111C20.2862 12.3759 20.2862 12.6956 20.1414 12.9604L20.7994 13.3202L21.4574 13.6801C21.8475 12.9668 21.8475 12.1046 21.4575 11.3914L20.7994 11.7512ZM3.20058 11.7511L2.54256 11.3912C2.15249 12.1045 2.15248 12.9667 2.54254 13.6799L3.20057 13.3201L3.8586 12.9602C3.7138 12.6955 3.7138 12.3758 3.8586 12.111L3.20058 11.7511ZM19 9.38172L18.4764 9.91871C19.1347 10.5605 19.6974 11.2991 20.1414 12.1111L20.7994 11.7512L21.4575 11.3914C20.9412 10.4475 20.2876 9.5897 19.5236 8.84473L19 9.38172ZM12 18.5357V17.7857C11.2002 17.7857 10.4251 17.6847 9.68628 17.4953L9.5 18.2218L9.31372 18.9483C10.1732 19.1687 11.0735 19.2857 12 19.2857V18.5357ZM12 6.53567V7.28567C12.8346 7.28567 13.6423 7.39557 14.4099 7.60125L14.604 6.87681L14.7981 6.15236C13.905 5.91306 12.9668 5.78567 12 5.78567V6.53567ZM5.43906 16.0931L5.92995 15.526C5.09529 14.8034 4.39151 13.9347 3.8586 12.9602L3.20057 13.3201L2.54254 13.6799C3.16202 14.8127 3.97944 15.8214 4.94816 16.6601L5.43906 16.0931ZM7.07264 17.2446L7.44155 16.5916C6.90181 16.2866 6.3956 15.9292 5.92995 15.526L5.43906 16.0931L4.94816 16.6601C5.48873 17.1281 6.07659 17.5433 6.70374 17.8976L7.07264 17.2446ZM5.43906 16.0931L5.00695 16.7061L6.64054 17.8576L7.07264 17.2446L7.50475 16.6315L5.87116 15.4801L5.43906 16.0931ZM14.604 6.87681L14.4099 7.60125C15.1269 7.79337 15.8096 8.06925 16.4471 8.41785L16.8069 7.75983L17.1668 7.10181C16.426 6.69666 15.6321 6.37582 14.7981 6.15236L14.604 6.87681ZM4.46447 20L4.9948 20.5303L19.9948 5.53033L19.4645 5L18.9341 4.46967L3.93414 19.4697L4.46447 20ZM9 12.5357H9.75C9.75 11.293 10.7574 10.2857 12 10.2857V9.53567V8.78567C9.92893 8.78567 8.25 10.4646 8.25 12.5357H9Z" fill="#174BA0"/>
</svg>
