<svg width="24" height="24" viewBox="0 0 24 24" fill="none" xmlns="http://www.w3.org/2000/svg">
<path d="M8 7C8 9.20914 9.79086 11 12 11C14.2091 11 16 9.20914 16 7C16 4.79086 14.2091 3 12 3M15.8184 20.0455L16.7728 20.1818C17.9483 20.3498 19 19.4376 19 18.2502V16.9347C19 16.0743 18.4591 15.3068 17.6489 15.0175C13.996 13.7128 10.004 13.7128 6.35109 15.0175C5.54085 15.3068 5 16.0743 5 16.9347V18.2502C5 19.4376 6.0517 20.3498 7.22721 20.1818L8.18162 20.0455C10.7144 19.6837 13.2856 19.6837 15.8184 20.0455Z" stroke="#174BA0" stroke-width="1.5" stroke-linecap="round"/>
</svg>
